<svg width="153" height="162" viewBox="0 0 153 162" fill="none" xmlns="http://www.w3.org/2000/svg">
<path fill-rule="evenodd" clip-rule="evenodd" d="M87.4105 2.95214L140.709 32.3093L140.728 32.3196C143.586 33.8783 145.982 35.9799 147.833 38.4389C148.366 38.9157 148.836 39.4762 149.219 40.1147C149.578 40.7129 149.838 41.34 150.003 41.9788C151.231 44.4916 151.97 47.2339 152.158 50.0634C152.239 50.4883 152.28 50.9226 152.28 51.3607V110.134C152.28 111.086 152.086 112.003 151.731 112.845C150.786 119.034 147.155 124.563 141.73 128.016C141.401 128.279 141.046 128.517 140.667 128.726L87.3145 158.113L87.2804 158.131C85.2304 159.247 83.0349 160.037 80.7792 160.5C79.5173 161.441 77.9342 162 76.2157 162C74.5788 162 73.0652 161.492 71.8345 160.632C69.6463 160.248 67.5067 159.555 65.4938 158.55C65.2373 158.444 64.9847 158.322 64.7372 158.186L11.4184 128.818L11.3993 128.808C4.30948 124.941 0 117.686 0 109.913V51.1402C0 43.3078 4.29911 36.0362 11.4184 32.1623C11.6984 32.01 11.9861 31.8764 12.2794 31.7615L64.7257 2.87412L64.7321 2.87048C71.6958 -0.977838 80.3951 -0.962734 87.4105 2.95214ZM14.9355 54.9659V109.913C14.9355 112.566 16.4108 115.003 18.7606 116.281L18.7946 116.3L68.748 143.814V84.9711L14.9355 54.9659ZM83.6835 84.9719V143.532L132.428 116.683C132.662 116.511 132.909 116.351 133.166 116.204C135.539 114.854 137.04 112.364 137.04 109.62C137.04 108.916 137.146 108.231 137.345 107.582V55.0515L83.6835 84.9719ZM129.57 42.755L79.936 15.4161C77.5066 14.0566 74.4841 14.0749 72.1584 15.361L22.6448 42.6332L76.2166 72.5039L129.57 42.755Z" fill="black"/>
</svg>